<svg xmlns="http://www.w3.org/2000/svg" viewBox="0 0 512 512">
  <defs>
    <radialGradient id="bg" cx="50%" cy="34%" r="75%">
      <stop offset="0%" stop-color="#153042"/>
      <stop offset="100%" stop-color="#08131e"/>
    </radialGradient>
    <linearGradient id="tree" x1="0" y1="0" x2="0" y2="1">
      <stop offset="0%" stop-color="#7de6ab"/>
      <stop offset="55%" stop-color="#4ade80"/>
      <stop offset="100%" stop-color="#2f9e5a"/>
    </linearGradient>
  </defs>
  <rect width="512" height="512" rx="112" fill="url(#bg)"/>
  <g stroke="url(#tree)" stroke-width="16" stroke-linecap="round" fill="none">
    <!-- trunk -->
    <path d="M256 430 L256 190"/>
    <!-- upper branches (canopy) -->
    <path d="M256 210 C210 170 176 150 150 118"/>
    <path d="M256 210 C302 170 336 150 362 118"/>
    <path d="M256 250 C220 224 196 210 176 182"/>
    <path d="M256 250 C292 224 316 210 336 182"/>
    <path d="M256 180 L256 96"/>
    <!-- roots -->
    <path d="M256 430 C214 452 186 458 150 470"/>
    <path d="M256 430 C298 452 326 458 362 470"/>
    <path d="M256 430 L256 480"/>
  </g>
  <!-- canopy glow nodes -->
  <g fill="#c8ffdd">
    <circle cx="150" cy="118" r="13"/>
    <circle cx="362" cy="118" r="13"/>
    <circle cx="256" cy="96" r="15"/>
    <circle cx="176" cy="182" r="10"/>
    <circle cx="336" cy="182" r="10"/>
  </g>
  <!-- rune spark at heart -->
  <path d="M256 300 l26 20 l-10 32 l-32 0 l-10 -32 z" fill="#fbbf24" opacity="0.9"/>
</svg>
